<svg xmlns="http://www.w3.org/2000/svg" data-name="Layer 1" viewBox="0 0 100 125" x="0px" y="0px"><title>54 all</title><path d="M37,29.75v18a13,13,0,0,0,26,0v-18a13,13,0,0,0-26,0Z"/><path d="M73,46.75V44.67H67v2.08a17,17,0,0,1-34,0V44.67H27v2.08a23,23,0,0,0,20,22.8v7.7H40v6H60v-6H53v-7.7A23,23,0,0,0,73,46.75Z"/><text x="0" y="115" fill="#000000" font-size="5px" font-weight="bold" font-family="'Helvetica Neue', Helvetica, Arial-Unicode, Arial, Sans-serif">Created by prakruti</text><text x="0" y="120" fill="#000000" font-size="5px" font-weight="bold" font-family="'Helvetica Neue', Helvetica, Arial-Unicode, Arial, Sans-serif">from the Noun Project</text></svg>